<?xml version="1.0" standalone="no"?>
<!DOCTYPE svg PUBLIC "-//W3C//DTD SVG 20010904//EN"
 "http://www.w3.org/TR/2001/REC-SVG-20010904/DTD/svg10.dtd">
<svg version="1.0" xmlns="http://www.w3.org/2000/svg"
 width="1440.000000pt" height="454.000000pt" viewBox="0 0 1440.000000 454.000000"
 preserveAspectRatio="xMidYMid meet">

<g transform="translate(0.000000,454.000000) scale(0.100000,-0.100000)"
fill="#000000" stroke="none">
<path d="M943 4459 c-237 -30 -402 -128 -478 -283 -51 -102 -65 -183 -65 -373
l0 -162 -122 -3 -123 -3 -13 -85 c-13 -84 -10 -256 6 -345 l7 -40 123 -3 122
-3 0 -734 0 -735 23 -5 c135 -31 499 -31 635 0 l22 5 0 735 0 735 169 0 170 0
12 58 c17 77 17 303 0 370 l-13 52 -169 0 -169 0 0 103 c0 114 14 155 63 191
25 18 42 21 130 20 74 -1 118 -6 160 -21 l58 -20 43 61 c75 106 117 205 134
319 l9 58 -36 18 c-156 79 -470 120 -698 90z"/>
<path d="M5780 4459 c-41 -5 -85 -11 -97 -14 l-23 -5 0 -1374 0 -1374 23 -6
c100 -25 355 -33 515 -16 147 16 142 13 142 77 l0 55 47 -41 c112 -99 277
-148 463 -138 189 11 304 58 415 171 112 114 177 258 216 483 26 154 36 436
20 603 -43 451 -187 695 -464 787 -74 24 -97 27 -227 27 -133 0 -152 -2 -225
-28 -87 -30 -149 -65 -207 -119 l-38 -35 0 464 0 464 -22 5 c-103 24 -387 31
-538 14z m869 -1297 c54 -27 88 -79 112 -167 20 -72 22 -104 22 -335 1 -231
-1 -262 -21 -334 -26 -93 -59 -141 -116 -167 -108 -49 -232 2 -283 116 -16 35
-18 77 -21 347 -3 255 -1 318 13 370 30 122 102 188 205 188 33 0 69 -7 89
-18z"/>
<path d="M11705 4065 c-94 -14 -225 -49 -266 -70 l-29 -16 0 -169 0 -170 -129
0 -130 0 -11 -57 c-7 -32 -12 -114 -12 -183 0 -69 5 -151 12 -183 l11 -57 129
0 129 0 4 -502 c3 -433 6 -514 21 -578 60 -258 198 -390 461 -441 108 -21 415
-18 542 5 l102 19 12 56 c17 84 15 245 -5 326 -25 101 -19 97 -112 84 -129
-18 -237 4 -286 58 -10 10 -25 37 -35 58 -16 36 -18 83 -21 478 l-3 437 184 0
185 0 11 63 c6 35 11 115 11 177 0 62 -5 142 -11 177 l-11 63 -184 0 -184 0 0
220 0 220 -152 -1 c-84 -1 -189 -7 -233 -14z"/>
<path d="M2250 3693 c-164 -16 -336 -57 -499 -120 l-94 -36 6 -77 c10 -121 65
-252 150 -352 l32 -38 119 30 c66 17 172 36 236 42 102 10 125 10 185 -5 115
-28 164 -85 173 -198 l4 -55 -243 0 c-215 1 -256 -2 -344 -21 -239 -53 -379
-173 -441 -378 -26 -85 -26 -328 -1 -440 26 -110 76 -211 136 -272 62 -63 115
-94 211 -124 65 -21 95 -24 220 -23 240 1 375 54 471 187 l27 38 29 -81 c15
-44 35 -82 43 -85 105 -31 444 -31 553 1 16 5 17 47 17 703 0 745 -3 798 -51
925 -97 260 -363 390 -784 384 -66 0 -136 -3 -155 -5z m299 -1202 c23 -15 9
-230 -19 -305 -42 -110 -121 -167 -209 -151 -100 19 -135 76 -135 225 -1 80 3
102 22 143 37 74 87 95 227 96 55 0 106 -3 114 -8z"/>
<path d="M4064 3689 c-329 -55 -507 -316 -555 -809 -14 -150 -6 -445 15 -575
74 -445 282 -665 641 -682 181 -8 339 40 448 136 l47 43 0 -476 0 -476 23 -5
c135 -31 499 -31 635 0 l22 5 0 1389 0 1389 -24 6 c-98 25 -371 33 -521 16
-141 -17 -135 -13 -135 -77 l0 -55 -51 46 c-123 111 -337 160 -545 125z m476
-531 c52 -26 84 -70 105 -141 22 -74 22 -607 0 -692 -31 -118 -90 -176 -185
-183 -46 -3 -69 0 -102 17 -56 27 -83 68 -109 166 -20 71 -22 107 -23 315 -1
308 21 425 93 494 52 50 148 60 221 24z"/>
<path d="M8445 3686 c-101 -17 -154 -32 -230 -63 -135 -56 -268 -172 -344
-297 -122 -203 -175 -528 -141 -867 40 -396 202 -648 492 -766 209 -85 544
-96 822 -26 113 28 303 112 313 139 11 29 -22 165 -59 245 -19 41 -57 103 -83
137 -54 72 -41 70 -177 22 -147 -52 -346 -57 -434 -12 -76 39 -142 136 -159
234 l-7 38 498 2 499 3 12 65 c18 97 30 352 22 462 -24 313 -182 539 -446 635
-37 13 -99 31 -137 40 -97 21 -340 26 -441 9z m285 -478 c70 -36 93 -91 98
-234 l5 -114 -202 0 c-166 0 -201 2 -201 14 0 47 34 180 60 232 34 70 54 91
107 110 54 19 83 17 133 -8z"/>
<path d="M13390 3693 c-164 -16 -336 -57 -499 -120 l-94 -36 6 -77 c10 -121
65 -252 150 -352 l32 -38 119 30 c66 17 172 36 236 42 102 10 125 10 185 -5
115 -28 164 -85 173 -198 l4 -55 -243 0 c-215 1 -256 -2 -344 -21 -239 -53
-379 -173 -441 -378 -26 -85 -26 -328 -1 -440 26 -110 76 -211 136 -272 62
-63 115 -94 211 -124 65 -21 95 -24 220 -23 240 1 375 54 471 187 l27 38 29
-81 c15 -44 35 -82 43 -85 105 -31 444 -31 553 1 16 5 17 47 17 703 0 745 -3
798 -51 925 -97 260 -363 390 -784 384 -66 0 -136 -3 -155 -5z m299 -1202 c23
-15 9 -230 -19 -305 -42 -110 -121 -167 -209 -151 -100 19 -135 76 -135 225
-1 80 3 102 22 143 37 74 87 95 227 96 55 0 106 -3 114 -8z"/>
<path d="M10678 3671 c-93 -30 -176 -90 -260 -190 l-38 -45 0 97 c0 111 10
101 -125 117 -153 17 -427 9 -532 -15 l-23 -5 0 -970 0 -970 23 -5 c135 -31
499 -31 635 0 l22 5 0 644 0 643 44 41 c24 22 68 53 98 69 46 24 64 28 138 28
76 0 90 -3 135 -29 l49 -29 68 73 c113 120 183 261 203 407 l7 52 -71 36
c-129 65 -262 81 -373 46z"/>
<path d="M8520 959 c0 -247 5 -272 65 -309 33 -20 46 -21 962 -23 l928 -3 45
-25 c69 -37 80 -68 80 -224 0 -146 7 -181 50 -248 36 -58 104 -102 177 -118
68 -14 191 2 273 35 32 12 207 129 410 273 195 137 375 260 399 272 27 14 76
26 130 32 47 5 574 9 1171 9 1058 0 1086 1 1117 20 59 36 63 55 63 305 l0 226
-1252 -3 -1253 -3 -80 -23 c-121 -34 -164 -59 -360 -213 -99 -78 -208 -162
-243 -186 -89 -64 -92 -59 -92 126 0 162 -12 208 -65 249 -68 53 -34 52 -1327
52 l-1198 0 0 -221z"/>
</g>
</svg>
